<?xml version="1.0" standalone="no"?><!DOCTYPE svg PUBLIC "-//W3C//DTD SVG 1.1//EN" "http://www.w3.org/Graphics/SVG/1.1/DTD/svg11.dtd"><svg t="1515379070097" class="icon" style="" viewBox="0 0 1024 1024" version="1.1" xmlns="http://www.w3.org/2000/svg" p-id="1556" xmlns:xlink="http://www.w3.org/1999/xlink" width="200" height="200"><defs><style type="text/css"></style></defs><path d="M511.845992 64.885799C264.982582 64.885799 64.850495 265.018909 64.850495 511.88232s200.13311 446.995497 446.99652 446.995497 446.99652-200.132086 446.99652-446.995497S758.710426 64.885799 511.845992 64.885799zM511.845992 911.826198c-220.878596 0-399.943878-179.064258-399.943878-399.943878S290.967396 111.937418 511.845992 111.937418c220.87962 0 399.943878 179.065282 399.943878 399.943878S732.725612 911.826198 511.845992 911.826198z" p-id="1557" fill="#b6b6b7"></path><path d="M511.845992 657.519258c-37.724183 0-68.303642 30.600949-68.303642 68.327178 0 37.747719 30.578436 68.348668 68.303642 68.348668s68.281129-30.600949 68.281129-68.348668C580.127122 688.120206 549.571199 657.519258 511.845992 657.519258zM664.652214 313.655629c-7.995091-17.23043-19.11536-32.04995-33.428344-44.432978-14.290471-12.406564-31.429827-22.101367-51.418067-29.085432-19.987217-6.961552-42.135656-10.43056-66.443271-10.43056-22.790052 0-43.835368 3.790326-63.203484 11.395538-19.367093 7.581676-36.299741 18.403139-50.866505 32.463366-14.56574 14.060227-26.328645 31.153534-35.31225 51.27992-8.982582 20.147876-14.611789 42.595121-16.885576 67.431785l91.094718 0c9.120728-57.988716 34.438347-87.005586 75.931367-87.005586 10.638291 0 20.240997 1.723248 28.856211 5.146207 8.592702 3.422959 16.058744 8.179286 22.401196 14.266935 6.317892 6.066159 11.18883 13.256932 14.589276 21.642926 3.422959 8.338922 5.122671 17.460674 5.122671 27.339672 0 5.329379-0.367367 10.429537-1.125637 15.370059-0.75827 4.939499-2.780323 10.269901-6.066159 15.96767-3.284813 5.697769-8.109702 12.153808-14.428617 19.368116-6.317892 7.214309-15.185864 15.530718-26.581402 24.88169-26.329668 22.032806-44.272319 42.916439-53.899584 62.675458-9.442046 19.597337-17.368576 46.019103-16.633842 100.032274l91.003644 0c-4.502547-30.395264-0.917906-54.863539 3.836375-65.087391 2.527566-5.559623 7.397481-12.152784 14.612813-19.735483 7.189749-7.604188 16.747429-16.35755 28.64848-26.236548 10.637268-8.845459 20.37812-18.104333 29.224602-27.730575 8.867972-9.603729 16.473183-19.805068 22.790052-30.579459 6.340405-10.752902 11.257391-22.148439 14.818497-34.186613 3.538593-12.015661 5.329379-24.88169 5.329379-38.551014C676.620803 349.611539 672.600233 330.887083 664.652214 313.655629z" p-id="1558" fill="#b6b6b7"></path></svg>